#!OML:ASF H:\charlestonDancing\Project 1\Capture day 1\Session 1\femaleDancer.ASF
:FULLY-SPECIFIED
:DEGREES
64
root 1.46873 17.3744 -0.686612 218.918 -87.9104 -216.846
lowerback 18.4312 2.69749 0.983243
upperback 4.12757 3.4656 -0.262977
thorax -5.7824 1.57464 -1.62053
lowerneck 3.85366 -1.30407 0.49867
upperneck 1.59316 -1.74275 -2.9839
head -0.181153 -0.867163 -0.970939
rclavicle 1.66979e-014 -4.77083e-015
rhumerus -30.2735 -0.0243271 -76.2998
rradius 77.3625
rwrist 24.2489
rhand -37.6852 -49.1733
rfingers 7.12502
rthumb -10.7356 -78.879
lclavicle 1.66979e-014 -4.77083e-015
lhumerus -32.6895 23.4434 13.2564
lradius 152.701
lwrist 8.63649
lhand 4.55536 16.7369
lfingers 7.12502
lthumb 29.9458 44.334
rfemur -39.5774 -6.57056 16.7735
rtibia 96.1453
rfoot -20.7004 -1.80558
rtoes -15.6994
lfemur -19.7961 -0.208671 -29.7246
ltibia 42.2899
lfoot -4.54568 -19.0282
ltoes 11.6263
65
root 1.44083 17.4819 -0.667772 216.217 -88.0948 -214.138
lowerback 18.1554 2.48733 1.32987
upperback 4.06824 3.27107 -0.11485
thorax -5.69383 1.48037 -1.60356
lowerneck 3.53508 -1.25146 0.431186
upperneck 2.19427 -1.6645 -3.29248
head 0.0539533 -0.838839 -1.06044
rclavicle 1.95803e-014 -7.55382e-015
rhumerus -28.0359 0.705937 -75.719
rradius 78.7071
rwrist 24.4636
rhand -38.0746 -49.6115
rfingers 7.12502
rthumb -11.1113 -79.2974
lclavicle 1.95803e-014 -7.55382e-015
lhumerus -33.7979 22.2918 14.9893
lradius 152.959
lwrist 7.2989
lhand 4.5032 16.1389
lfingers 7.12502
lthumb 29.896 43.7449
rfemur -41.4808 -5.3708 16.8668
rtibia 95.377
rfoot -21.7146 -0.438412
rtoes -15.986
lfemur -19.0163 -0.493375 -29.6293
ltibia 40.9482
lfoot -4.1147 -17.7493
ltoes 11.8269
66
root 1.41448 17.5922 -0.658302 207.425 -88.5048 -205.457
lowerback 18.0731 2.29678 1.82602
upperback 4.06324 3.13025 0.134914
thorax -5.6467 1.40747 -1.58331
lowerneck 2.99861 -1.28977 0.439376
upperneck 2.81966 -1.69805 -3.57264
head 0.330154 -0.869433 -1.1562
rclavicle -1.64991e-014 7.95139e-016
rhumerus -25.8745 1.16497 -74.8892
rradius 79.7965
rwrist 24.6192
rhand -38.5641 -49.5601
rfingers 7.12502
rthumb -11.5833 -79.22
lclavicle -1.64991e-014 7.95139e-016
lhumerus -34.9509 21.1611 16.8636
lradius 153.288
lwrist 6.07123
lhand 4.38513 15.4685
lfingers 7.12502
lthumb 29.7833 43.0948
rfemur -42.605 -4.0958 17.2693
rtibia 93.221
rfoot -22.6839 0.455535
rtoes -17.6587
lfemur -18.1085 -0.80511 -29.2545
ltibia 39.6418
lfoot -4.2973 -16.3517
ltoes 8.37112
67
root 1.38873 17.7052 -0.652844 188.141 -89.0409 -186.328
lowerback 18.0796 2.13848 2.38325
upperback 4.10868 3.04171 0.439289
thorax -5.59145 1.35791 -1.55379
lowerneck 2.42256 -1.44384 0.464568
upperneck 3.24115 -1.88736 -3.6798
head 0.549589 -0.97486 -1.20141
rclavicle -7.55382e-015 -1.15295e-014
rhumerus -23.8132 1.22957 -73.7721
rradius 80.6807
rwrist 24.9293
rhand -38.7374 -49.4531
rfingers 7.12502
rthumb -11.7504 -79.1035
lclavicle -7.55382e-015 -1.15295e-014
lhumerus -35.9012 20.0663 18.9103
lradius 153.594
lwrist 4.94528
lhand 4.04937 14.8177
lfingers 7.12502
lthumb 29.4628 42.5009
rfemur -43.3163 -2.98502 17.7154
rtibia 90.0686
rfoot -24.1458 1.14471
rtoes -18.9409
lfemur -17.2587 -1.14188 -28.7794
ltibia 38.5333
lfoot -4.68248 -14.8989
ltoes 3.33602
68
root 1.36516 17.8053 -0.65294 128.157 -89.3352 -126.532
lowerback 18.191 1.94603 2.91992
upperback 4.16498 2.90906 0.819903
thorax -5.58809 1.28497 -1.42574
lowerneck 1.89339 -1.63451 0.501158
upperneck 3.44236 -2.13067 -3.70158
head 0.69378 -1.10274 -1.22158
rclavicle 6.55989e-015 2.0276e-014
rhumerus -21.69 1.2603 -72.4412
rradius 81.222
rwrist 25.1439
rhand -38.814 -50.0784
rfingers 7.12502
rthumb -11.8243 -79.7245
lclavicle 6.55989e-015 2.0276e-014
lhumerus -36.7051 19.0218 20.9452
lradius 153.849
lwrist 3.69603
lhand 3.52224 14.2185
lfingers 7.12502
lthumb 28.9595 41.9892
rfemur -43.6252 -2.10714 18.2195
rtibia 85.969
rfoot -25.3569 1.26613
rtoes -20.8599
lfemur -16.5456 -1.55792 -28.1853
ltibia 37.7133
lfoot -4.97372 -13.4916
ltoes -1.73793
69
root 1.34233 17.8775 -0.660966 75.7378 -88.7465 -74.3282
lowerback 18.4103 1.73596 3.39486
upperback 4.206 2.7475 1.21677
thorax -5.66417 1.19616 -1.2425
lowerneck 1.43577 -1.89247 0.527103
upperneck 3.45582 -2.47126 -3.55056
head 0.768159 -1.27387 -1.18449
rclavicle 1.86858e-014 4.37326e-015
rhumerus -19.5377 1.16276 -70.9682
rradius 81.3548
rwrist 25.0942
rhand -38.9425 -50.8851
rfingers 7.12502
rthumb -11.9482 -80.5241
lclavicle 1.86858e-014 4.37326e-015
lhumerus -37.2245 18.0056 22.7902
lradius 154.054
lwrist 2.45081
lhand 2.84102 13.8183
lfingers 7.12502
lthumb 28.3086 41.6989
rfemur -43.5777 -1.45045 18.7099
rtibia 81.1342
rfoot -26.4156 0.985749
rtoes -21.5551
lfemur -15.9325 -2.00908 -27.5322
ltibia 37.2101
lfoot -5.19626 -12.3757
ltoes -6.68066
70
root 1.31857 17.9356 -0.671442 56.6584 -87.7557 -55.3367
lowerback 18.4599 1.5098 3.84262
upperback 4.24718 2.55141 1.53992
thorax -5.64878 1.09378 -1.10777
lowerneck 1.04105 -2.1878 0.494281
upperneck 3.29123 -2.8719 -3.05647
head 0.781179 -1.4685 -1.02884
rclavicle -6.16232e-015 4.77083e-015
rhumerus -17.3732 0.706446 -69.4996
rradius 81.0766
rwrist 25.0593
rhand -39.0189 -51.4491
rfingers 7.12502
rthumb -12.0219 -81.0838
lclavicle -6.16232e-015 4.77083e-015
lhumerus -37.3984 17.1266 24.2083
lradius 154.209
lwrist 1.28815
lhand 2.22478 13.5125
lfingers 7.12502
lthumb 27.7195 41.4893
rfemur -43.2382 -1.11145 19.0794
rtibia 75.5691
rfoot -27.4245 0.431005
rtoes -21.6214
lfemur -15.6016 -2.53022 -26.8946
ltibia 36.9819
lfoot -5.29093 -11.6736
ltoes -10.0313
71
root 1.2968 17.9731 -0.687985 49.7834 -86.6425 -48.3381
lowerback 18.2663 1.28156 4.20812
upperback 4.24606 2.32739 1.80551
thorax -5.55206 0.982704 -0.975676
lowerneck 0.814735 -2.44268 0.699251
upperneck 2.96701 -3.22119 -2.5468
head 0.716713 -1.63201 -0.905215
rclavicle -2.38542e-015 -1.35174e-014
rhumerus -15.246 0.201269 -68.1382
rradius 80.479
rwrist 24.8381
rhand -38.8777 -51.9257
rfingers 7.12502
rthumb -11.8857 -81.5683
lclavicle -2.38542e-015 -1.35174e-014
lhumerus -37.4482 16.4078 24.9053
lradius 154.374
lwrist 0.301752
lhand 1.71772 13.2891
lfingers 7.12502
lthumb 27.2346 41.3429
rfemur -42.8178 -0.832283 19.4177
rtibia 69.3944
rfoot -28.609 -0.525024
rtoes -21.709
lfemur -15.6912 -3.10385 -26.151
ltibia 36.974
lfoot -5.2326 -11.3713
ltoes -10.538
72
root 1.27687 17.985 -0.712218 46.0652 -85.707 -44.4045
lowerback 18.011 1.10483 4.25445
upperback 4.21559 2.10692 1.99375
thorax -5.46401 0.878274 -0.747177
lowerneck 0.700868 -2.68871 1.01315
upperneck 2.5747 -3.5591 -2.01174
head 0.612986 -1.7894 -0.789783
rclavicle 1.64991e-014 1.82882e-014
rhumerus -13.2549 -0.211944 -66.9061
rradius 79.7104
rwrist 24.1623
rhand -38.6458 -52.5204
rfingers 7.12502
rthumb -11.6621 -82.1758
lclavicle 1.64991e-014 1.82882e-014
lhumerus -37.3462 15.902 24.8439
lradius 154.558
lwrist -0.180965
lhand 1.14842 13.3442
lfingers 7.12502
lthumb 26.6899 41.4822
rfemur -42.3145 -0.340575 19.48
rtibia 62.7532
rfoot -29.721 -1.75658
rtoes -21.7975
lfemur -15.9261 -3.67962 -25.5204
ltibia 37.059
lfoot -5.56502 -11.3651
ltoes -10.8361
73
root 1.25685 17.9664 -0.737809 41.9369 -84.9556 -40.1272
lowerback 17.7718 0.99952 4.06335
upperback 4.25504 1.92619 2.07492
thorax -5.31157 0.796959 -0.508495
lowerneck 0.525438 -2.9299 1.24564
upperneck 2.17316 -3.89215 -1.30445
head 0.522751 -1.94665 -0.609643
rclavicle -2.18663e-014 1.94809e-014
rhumerus -11.3942 -0.712629 -65.742
rradius 78.8015
rwrist 23.0899
rhand -38.5076 -52.7424
rfingers 7.12502
rthumb -11.5288 -82.4054
lclavicle -2.18663e-014 1.94809e-014
lhumerus -36.8209 15.7669 24.245
lradius 154.718
lwrist -0.115395
lhand 0.634298 13.6329
lfingers 7.12502
lthumb 26.1978 41.8449
rfemur -41.5531 0.178206 19.1321
rtibia 55.8371
rfoot -30.3421 -2.90033
rtoes -22.5408
lfemur -16.0658 -4.30796 -25.1673
ltibia 37.1826
lfoot -6.12685 -11.73
ltoes -10.3594
74
root 1.23759 17.9215 -0.765647 37.5365 -84.1537 -35.6749
lowerback 17.6082 0.922022 3.81836
upperback 4.32846 1.77231 2.12381
thorax -5.16132 0.728216 -0.281737
lowerneck 0.45443 -3.17928 1.50412
upperneck 1.66205 -4.23252 -0.643713
head 0.382864 -2.11083 -0.44566
rclavicle 1.88845e-014 4.37326e-015
rhumerus -9.73207 -1.20496 -64.5448
rradius 77.8509
rwrist 21.5941
rhand -38.4057 -52.5936
rfingers 7.12502
rthumb -11.4305 -82.2621
lclavicle 1.88845e-014 4.37326e-015
lhumerus -35.9931 15.9302 23.1905
lradius 154.888
lwrist 0.383427
lhand 0.103888 14.2563
lfingers 7.12502
lthumb 25.6899 42.5427
rfemur -40.5275 0.670093 18.5589
rtibia 48.8558
rfoot -31.2004 -3.48648
rtoes -21.6996
lfemur -16.0555 -5.00815 -24.92
ltibia 37.2378
lfoot -6.34672 -12.5623
ltoes -6.97875
75
root 1.22294 17.8643 -0.80008 33.9693 -83.1367 -32.1501
lowerback 17.6214 0.807842 3.62714
upperback 4.36657 1.59337 2.21465
thorax -5.14183 0.643299 -0.0389841
lowerneck 0.551417 -3.46138 1.57562
upperneck 1.11 -4.61093 0.112448
head 0.212042 -2.29894 -0.219649
rclavicle 9.54166e-015 -1.47101e-014
rhumerus -8.39298 -1.57031 -63.3608
rradius 77.0055
rwrist 19.9984
rhand -38.1757 -52.4559
rfingers 7.12502
rthumb -11.2087 -82.1365
lclavicle 9.54166e-015 -1.47101e-014
lhumerus -34.9448 16.3507 21.7128
lradius 155.03
lwrist 1.30489
lhand -0.345906 15.2746
lfingers 7.12502
lthumb 25.259 43.6225
rfemur -39.4088 1.25249 17.9782
rtibia 42.1046
rfoot -31.0173 -4.87122
rtoes -22.6742
lfemur -15.9121 -5.63985 -24.5791
ltibia 37.2102
lfoot -6.70558 -13.6208
ltoes -2.75599
